<?xml version="1.0" standalone="no"?>
<!DOCTYPE svg PUBLIC "-//W3C//DTD SVG 20010904//EN"
 "http://www.w3.org/TR/2001/REC-SVG-20010904/DTD/svg10.dtd">
<svg version="1.0" xmlns="http://www.w3.org/2000/svg"
 width="512.000000pt" height="512.000000pt" viewBox="0 0 512.000000 512.000000"
 preserveAspectRatio="xMidYMid meet">

<g transform="translate(0.000000,512.000000) scale(0.100000,-0.100000)"
fill="#000000" stroke="none">
<path d="M1618 5030 c-183 -31 -348 -118 -483 -254 -130 -131 -212 -293 -242
-477 l-16 -100 -47 46 c-25 25 -50 45 -56 45 -13 0 -104 -93 -104 -106 0 -5
58 -67 128 -137 170 -168 154 -168 324 0 70 70 128 132 128 138 0 13 -92 105
-105 105 -5 0 -31 -21 -58 -47 l-48 -48 6 40 c31 194 103 337 229 452 117 106
242 164 402 186 l84 11 0 78 0 78 -47 -1 c-27 -1 -69 -5 -95 -9z"/>
<path d="M2345 5015 c-24 -23 -25 -30 -25 -140 l0 -116 -37 -15 -36 -16 -83
83 c-116 116 -112 116 -281 -54 -170 -169 -170 -165 -54 -281 l83 -83 -16 -36
-15 -37 -116 0 c-110 0 -117 -1 -140 -25 -25 -24 -25 -26 -25 -215 0 -189 0
-191 25 -215 23 -24 30 -25 140 -25 l116 0 15 -35 c7 -19 14 -37 14 -40 0 -3
-293 -5 -651 -5 -483 0 -662 -3 -693 -12 -55 -16 -138 -99 -154 -154 -9 -32
-12 -357 -12 -1377 l0 -1335 -109 -4 c-118 -3 -141 -12 -185 -72 -20 -26 -21
-41 -21 -225 l0 -197 37 -76 c45 -91 103 -147 196 -191 l67 -32 2175 0 2175 0
67 32 c93 44 151 100 196 191 l37 76 0 197 c0 184 -1 199 -21 225 -44 60 -67
69 -185 72 l-109 4 0 1335 c0 1020 -3 1345 -12 1377 -16 55 -99 138 -154 154
-31 9 -210 12 -693 12 -358 0 -651 2 -651 5 0 3 7 21 14 40 l15 35 116 0 c110
0 117 1 140 25 25 24 25 26 25 215 0 189 0 191 -25 215 -23 24 -30 25 -140 25
l-116 0 -15 37 -16 36 83 83 c116 116 116 112 -54 281 -169 170 -165 170 -281
54 l-83 -83 -36 16 -37 15 0 116 c0 110 -1 117 -25 140 -24 25 -26 25 -215 25
-189 0 -191 0 -215 -25z m295 -243 c0 -123 8 -138 85 -162 22 -7 61 -23 87
-36 78 -39 97 -34 184 48 l75 72 51 -52 52 -51 -72 -75 c-82 -87 -87 -106 -48
-184 13 -26 29 -65 36 -87 24 -77 39 -85 162 -85 l108 0 0 -80 0 -80 -108 0
c-123 0 -138 -8 -162 -85 -7 -22 -23 -61 -36 -87 -39 -78 -34 -97 48 -184 l72
-75 -52 -52 -51 -51 -75 72 c-85 82 -105 88 -184 48 -26 -13 -65 -29 -87 -36
-77 -24 -85 -39 -85 -162 l0 -108 -80 0 -80 0 0 108 c0 123 -8 138 -85 162
-22 7 -61 23 -87 36 -78 39 -97 34 -184 -48 l-75 -72 -51 52 -52 51 72 75 c82
87 87 106 48 184 -13 26 -29 65 -36 87 -24 77 -39 85 -162 85 l-108 0 0 80 0
80 108 0 c123 0 138 8 162 85 7 22 23 61 36 87 39 78 34 97 -48 184 l-72 75
52 51 51 52 75 -72 c87 -82 106 -87 184 -48 26 13 65 29 87 36 77 24 85 39 85
162 l0 108 80 0 80 0 0 -108z m-894 -1187 c-3 -8 -1 -26 4 -40 l9 -24 -509 -3
c-496 -3 -509 -4 -536 -24 -15 -11 -37 -33 -48 -48 -21 -27 -21 -31 -21 -1206
0 -1175 0 -1179 21 -1206 11 -15 33 -37 48 -48 l27 -21 1813 -3 1813 -2 34 23
c18 12 44 38 56 56 l23 34 0 1167 0 1167 -23 34 c-12 18 -38 44 -56 56 l-34
23 -503 0 -504 0 10 25 c5 14 7 32 4 40 -5 13 59 15 554 15 390 0 568 -3 585
-11 14 -6 30 -22 36 -36 8 -17 11 -399 11 -1348 l0 -1325 -735 0 c-599 0 -742
-3 -768 -14 -43 -17 -85 -68 -93 -111 l-6 -35 -398 0 -398 0 -6 35 c-8 43 -50
94 -93 111 -26 11 -169 14 -768 14 l-735 0 0 1325 c0 952 3 1331 11 1349 6 13
21 29 33 34 14 7 218 11 585 11 498 1 562 -1 557 -14z m539 -169 l35 -15 0
-116 c0 -110 1 -117 25 -140 24 -25 26 -25 215 -25 189 0 191 0 215 25 24 23
25 30 25 140 l0 116 37 15 36 16 83 -83 c103 -102 121 -106 192 -36 l48 47
562 0 562 0 0 -711 c0 -673 -1 -711 -17 -698 -10 8 -112 94 -227 192 -188 161
-212 179 -240 175 -21 -3 -199 -124 -573 -392 l-542 -388 -423 308 c-310 226
-432 309 -456 312 -32 4 -43 -6 -218 -179 l-184 -183 -143 142 c-127 126 -147
142 -177 142 -30 0 -50 -16 -177 -142 l-143 -142 0 782 0 782 562 0 562 0 47
-46 c71 -70 92 -66 192 34 45 45 83 82 85 82 1 0 18 -7 37 -14z m1867 -1549
l167 -142 0 -302 1 -303 -120 0 -120 0 0 360 0 360 -80 0 -80 0 0 -360 0 -360
-80 0 -80 0 0 360 0 360 -80 0 -80 0 0 -360 0 -360 -80 0 -80 0 0 240 0 240
-80 0 -80 0 0 -240 0 -240 -80 0 -80 0 0 120 0 120 -80 0 -80 0 0 -120 0 -120
-80 0 -80 0 0 80 0 80 -80 0 -80 0 0 -80 0 -80 -80 0 -80 0 0 80 0 80 -80 0
-80 0 0 -80 0 -80 -80 0 -80 0 0 240 0 240 -80 0 -80 0 0 -240 0 -240 -80 0
-80 0 0 280 0 280 -80 0 -80 0 0 -280 0 -280 -80 0 -80 0 0 160 0 160 -80 0
-80 0 0 -160 0 -160 -80 0 -80 0 0 280 0 280 -80 0 -80 0 0 -280 0 -280 -120
0 -120 0 0 223 0 222 160 160 160 159 143 -142 c128 -126 147 -142 177 -142
30 0 53 19 221 186 l187 187 34 -24 c18 -13 208 -151 422 -306 283 -207 396
-283 416 -283 20 0 174 105 571 389 l544 388 75 -64 c41 -36 150 -128 242
-206z m-2148 -1185 c6 -41 54 -98 94 -113 30 -12 894 -12 924 0 40 15 88 72
94 113 l7 38 876 0 876 0 -3 -142 c-2 -79 -8 -158 -14 -177 -15 -47 -75 -110
-128 -135 l-45 -21 -2100 -3 c-1488 -2 -2115 1 -2153 9 -68 14 -129 61 -161
124 -24 45 -26 62 -30 197 l-3 148 880 0 879 0 7 -38z"/>
<path d="M2443 4466 c-104 -34 -204 -123 -251 -224 -24 -50 -27 -69 -27 -162
0 -99 2 -110 32 -171 40 -80 120 -159 200 -197 52 -24 70 -27 163 -27 99 0
110 2 171 32 80 40 159 120 197 200 24 52 27 70 27 163 0 99 -2 110 -32 171
-40 81 -121 160 -200 197 -70 32 -210 41 -280 18z m207 -167 c60 -27 98 -64
126 -124 29 -62 30 -125 3 -185 -88 -194 -346 -197 -435 -5 -44 94 -27 183 51
260 75 76 166 95 255 54z"/>
<path d="M2523 2947 c-12 -6 -99 -108 -193 -226 -185 -232 -193 -249 -145
-296 20 -21 34 -25 80 -25 l55 0 0 -255 0 -256 25 -24 c24 -25 26 -25 215 -25
189 0 191 0 215 25 l25 24 0 256 0 255 55 0 c46 0 60 4 80 25 48 47 40 64
-145 296 -163 204 -196 239 -230 239 -8 0 -25 -6 -37 -13z m115 -297 c40 -49
67 -90 60 -90 -6 0 -22 -10 -35 -22 -23 -21 -23 -23 -23 -280 l0 -258 -80 0
-80 0 0 259 0 259 -30 26 -31 25 68 86 c37 46 71 85 74 85 3 0 38 -40 77 -90z"/>
<path d="M400 480 l0 -80 240 0 240 0 0 80 0 80 -240 0 -240 0 0 -80z"/>
<path d="M4240 480 l0 -80 240 0 240 0 0 80 0 80 -240 0 -240 0 0 -80z"/>
<path d="M3360 4964 l0 -80 83 -11 c340 -46 584 -292 631 -637 l5 -40 -47 47
c-26 26 -52 47 -58 47 -13 0 -104 -93 -104 -106 0 -5 58 -67 128 -137 170
-168 154 -168 324 0 70 70 128 132 128 138 0 13 -92 105 -105 105 -5 0 -30
-20 -55 -45 l-47 -46 -16 101 c-65 397 -394 703 -789 736 l-78 7 0 -79z"/>
</g>
</svg>
